<?xml version="1.0" encoding="UTF-8" standalone="no"?>
<!-- Generator: Adobe Illustrator 13.0.2, SVG Export Plug-In . SVG Version: 6.00 Build 14948)  -->

<svg
   id="Layer_1"
   xml:space="preserve"
   viewBox="0 0 83.326593 108.7695"
   version="1.1"
   y="0px"
   x="0px"
   width="83.326591"
   height="108.7695"
   xmlns:xlink="http://www.w3.org/1999/xlink"
   xmlns="http://www.w3.org/2000/svg"
   xmlns:svg="http://www.w3.org/2000/svg"
   xmlns:rdf="http://www.w3.org/1999/02/22-rdf-syntax-ns#"
   xmlns:cc="http://creativecommons.org/ns#"
   xmlns:dc="http://purl.org/dc/elements/1.1/"><defs
   id="defs1"><linearGradient
     id="linearGradient141"><stop
       style="stop-color:#64ceb7;stop-opacity:1;"
       offset="0"
       id="stop139" /><stop
       style="stop-color:#5ec3bf;stop-opacity:1;"
       offset="0.49771217"
       id="stop140" /><stop
       style="stop-color:#59b9c6;stop-opacity:1"
       offset="1"
       id="stop141" /></linearGradient><linearGradient
     id="linearGradient25"><stop
       style="stop-color:#6adaaf;stop-opacity:1;"
       offset="0"
       id="stop25" /><stop
       style="stop-color:#53adce;stop-opacity:1;"
       offset="0.74842769"
       id="stop27" /><stop
       style="stop-color:#3cb7cc;stop-opacity:1;"
       offset="1"
       id="stop26" /></linearGradient><linearGradient
     xlink:href="#linearGradient141"
     id="linearGradient109"
     gradientUnits="userSpaceOnUse"
     gradientTransform="matrix(0.90383986,0,0,0.90383986,-348.99183,-2.70485)"
     x1="441.05573"
     y1="4.8886938"
     x2="476.45099"
     y2="40.25209" /><linearGradient
     xlink:href="#linearGradient25"
     id="linearGradient110"
     gradientUnits="userSpaceOnUse"
     gradientTransform="matrix(0.91706143,0,0,0.91706143,-141.78393,0.43774)"
     x1="394.69901"
     y1="2.7508903"
     x2="476.31186"
     y2="114.87547" /></defs>


<metadata
   id="metadata1"><rdf:RDF><cc:Work><dc:format>image/svg+xml</dc:format><dc:type
         rdf:resource="http://purl.org/dc/dcmitype/StillImage" /><cc:license
         rdf:resource="http://creativecommons.org/publicdomain/zero/1.0/" /><dc:publisher><cc:Agent
           rdf:about="http://openclipart.org/"><dc:title>Openclipart</dc:title></cc:Agent></dc:publisher><dc:title>Signs Hazard Warning</dc:title><dc:date>2006-09-11T08:59:16</dc:date><dc:description /><dc:source>https://openclipart.org/detail/14422/signs-hazard-warning-by-h0us3s-14422</dc:source><dc:creator><cc:Agent><dc:title>h0us3s</dc:title></cc:Agent></dc:creator><dc:subject><rdf:Bag><rdf:li>hazard</rdf:li><rdf:li>sign</rdf:li><rdf:li>warning</rdf:li></rdf:Bag></dc:subject></cc:Work><cc:License
       rdf:about="http://creativecommons.org/publicdomain/zero/1.0/"><cc:permits
         rdf:resource="http://creativecommons.org/ns#Reproduction" /><cc:permits
         rdf:resource="http://creativecommons.org/ns#Distribution" /><cc:permits
         rdf:resource="http://creativecommons.org/ns#DerivativeWorks" /></cc:License></rdf:RDF></metadata><path
   d="M 297.94603,30.561132 268.68733,1.3024333 A 4.4467846,4.4467846 22.500002 0 0 265.54298,0 h -37.35705 c -6.79338,0 -12.26406,5.4707 -12.26406,12.2641 v 84.24127 c 0,6.79343 5.47068,12.26413 12.26406,12.26413 h 58.80733 c 6.79338,0 12.2552,-5.4707 12.2552,-12.26413 V 33.705484 a 4.4467856,4.4467856 67.500002 0 0 -1.30243,-3.144352 z"
   style="fill:url(#linearGradient110);fill-rule:nonzero;stroke:none;stroke-width:6.72573;stroke-linecap:round;stroke-linejoin:round;stroke-miterlimit:10;stroke-dasharray:none;stroke-opacity:1;paint-order:fill markers stroke"
   id="path93"
   transform="translate(-215.92187)" /><path
   id="path94"
   style="fill:#ffffff;fill-opacity:1;stroke-width:0.44282"
   d="M 21.1836,2.5 20.47266,61.626953 31.18946,2.5 Z M 48.96129,3.0606652 26.13477,63.464844 51.74024,18.402344 49.65625,2.5 Z M 3.00001,9.21875 C 2.89319,9.78551 2.8379,10.372429 2.8379,10.974609 V 38.023438 L 13.13868,61.964844 C 13.13868,61.413499 5.9159,24.21485 3.00001,9.21875 Z M 56.47266,29.167969 33.08204,60.28125 61.08594,31.048828 56.48243,29.169922 Z m 12.33399,2.912109 -37.01954,35.980469 48.80155,-33.872164 0.23752,-1.289945 -0.12696,-0.126954 -11.875,-0.691406 z M 80.82618,43.650391 35.31251,70.605469 80.82618,49.978516 Z M 2.8379,48.708984 v 11.710938 l 5.49218,5.833984 z M 80.82618,63.410156 34.7168,74.589844 80.82618,68.759766 Z m 0,12.13086 -38.14258,1.59375 38.14258,1.294922 z m -45.69922,4.419922 -0.0293,0.002 45.72852,7.582031 V 81.9375 Z m -1.50781,4.982421 45.49023,17.146481 c 0.99744,-1.44857 1.61292,-3.18944 1.70508,-5.083981 -11.6375,-2.184724 -47.19531,-12.0625 -47.19531,-12.0625 z m -4.15235,3.966797 23.07031,17.304684 h 19.53516 c 0.017,0 0.0338,9e-5 0.0508,0 0.54368,-0.0564 1.07432,-0.15515 1.58594,-0.29492 z" /><path
   id="path95"
   style="fill:#ffffff;fill-opacity:1;stroke:url(#linearGradient109);stroke-width:5;stroke-linecap:round;stroke-linejoin:round;stroke-miterlimit:3;stroke-dasharray:none;stroke-opacity:1;paint-order:markers stroke fill"
   d="M 51.31641,3.3886719 V 20.533203 c 0,6.35775 5.11103,11.476563 11.46875,11.476563 h 17.15235 z" /><path
   style="fill:#ffffff;stroke:none;stroke-width:7.19;stroke-linecap:round;stroke-linejoin:round;stroke-miterlimit:10;stroke-opacity:0.918397;paint-order:fill markers stroke"
   id="path96"
   d="m 378.24291,53.052552 -1.28235,-0.772775 -1.48552,0.186667 0.33868,-1.458392 -0.63658,-1.35513 1.49167,-0.128562 1.09209,-1.024183 0.58322,1.378936 1.31153,0.722151 -1.13122,0.980791 z"
   transform="translate(-361.70382,-7.27671)" /><path
   style="fill:#ffffff;stroke:none;stroke-width:7.19;stroke-linecap:round;stroke-linejoin:round;stroke-miterlimit:10;stroke-opacity:0.918397;paint-order:fill markers stroke"
   id="path97"
   d="m 369.27189,24.515397 -1.17947,0.224943 -0.87594,0.821253 -0.57841,-1.052227 -1.05174,-0.579293 0.82199,-0.875255 0.22593,-1.179275 1.08643,0.511289 1.19137,-0.14954 -0.15054,1.19125 z"
   transform="translate(-359.70382,-7.27671)" /><path
   style="fill:#ffffff;stroke:none;stroke-width:7.19;stroke-linecap:round;stroke-linejoin:round;stroke-miterlimit:10;stroke-opacity:0.918397;paint-order:fill markers stroke"
   id="path98"
   d="m 397.71397,26.935354 -1.81424,-1.041795 -2.08676,0.148974 0.43018,-2.04737 -0.78653,-1.938594 2.0801,-0.223549 1.60066,-1.347091 0.85539,1.909209 1.77579,1.106046 -1.55143,1.403504 z"
   transform="matrix(1.0875893,0,0,1.0875893,-396.41354,-9.3466692)" /><path
   style="fill:#ffffff;stroke:none;stroke-width:7.19;stroke-linecap:round;stroke-linejoin:round;stroke-miterlimit:10;stroke-opacity:0.918397;paint-order:fill markers stroke"
   id="path99"
   d="m 395.65656,62.11459 -0.71073,-0.574389 -0.86118,-0.305632 0.32664,-0.853439 0.0246,-0.913485 0.91261,0.04694 0.87636,-0.258932 0.23737,0.882446 0.51707,0.753456 -0.7659,0.498446 z"
   transform="translate(-359.70382,-7.27671)" /><path
   style="fill:#ffffff;stroke:none;stroke-width:7.19;stroke-linecap:round;stroke-linejoin:round;stroke-miterlimit:10;stroke-opacity:0.918397;paint-order:fill markers stroke"
   id="path101"
   d="m 406.58381,46.120891 -1.4174,-0.356072 -1.32572,0.615042 -0.0994,-1.458059 -0.99461,-1.070775 1.356,-0.545058 0.71101,-1.276817 0.93741,1.121194 1.43404,0.281659 -0.77664,1.237994 z"
   transform="translate(-359.70382,-7.27671)" /><path
   style="fill:#ffffff;stroke:none;stroke-width:7.19;stroke-linecap:round;stroke-linejoin:round;stroke-miterlimit:10;stroke-opacity:0.918397;paint-order:fill markers stroke"
   id="path102"
   d="m 418.33914,72.423266 0.36186,-2.001786 -0.87595,-1.835975 2.01564,-0.27443 1.47543,-1.400428 0.88386,1.832179 1.78782,0.970463 -1.46938,1.40678 -0.3705,2.000207 -1.79198,-0.962742 z"
   transform="matrix(1.0348365,0,0,1.0348365,-376.71926,-8.2855469)" /><path
   style="fill:#ffffff;stroke:none;stroke-width:7.19;stroke-linecap:round;stroke-linejoin:round;stroke-miterlimit:10;stroke-opacity:0.918397;paint-order:fill markers stroke"
   id="path105"
   d="m 435.56351,64.489987 -1.13096,-0.176475 -1.12997,0.182726 -0.18165,-1.13014 -0.52296,-1.018195 1.0187,-0.52199 0.80675,-0.812006 0.81124,0.807532 1.02156,0.516348 -0.51732,1.021073 z"
   transform="rotate(-37.590333,245.10711,589.38116)" /><path
   style="fill:#ffffff;stroke:none;stroke-width:7.19;stroke-linecap:round;stroke-linejoin:round;stroke-miterlimit:10;stroke-opacity:0.918397;paint-order:fill markers stroke"
   id="path106"
   d="m 440.53262,81.194613 -1.86822,-0.313726 -1.70759,0.820267 -0.27894,-1.873732 -1.30779,-1.370533 1.69582,-0.844304 0.89933,-1.667303 1.32702,1.351924 1.8636,0.340082 -0.87568,1.679839 z"
   transform="matrix(0.71363161,0,0,0.71363161,-236.5217,15.88369)" /><path
   style="fill:#ffffff;stroke:none;stroke-width:7.19;stroke-linecap:round;stroke-linejoin:round;stroke-miterlimit:10;stroke-opacity:0.918397;paint-order:fill markers stroke"
   id="path107"
   d="m 421.77201,95.192914 -0.92061,-0.649072 -1.1222,-0.09726 0.33282,-1.076122 -0.25428,-1.097339 1.1263,-0.01601 0.96505,-0.580932 0.36327,1.066229 0.85072,0.738302 -0.90179,0.674974 z"
   transform="matrix(1.5266807,0,0,1.5266807,-582.3132,-54.31198)" /><path
   style="fill:#ffffff;stroke:none;stroke-width:7.19;stroke-linecap:round;stroke-linejoin:round;stroke-miterlimit:10;stroke-opacity:0.918397;paint-order:fill markers stroke"
   id="path108"
   d="m 406.35276,99.680599 -0.88423,-0.526902 -1.02929,0.0047 0.22787,-1.003768 -0.32254,-0.977467 1.02506,-0.09346 0.82995,-0.608809 0.40565,0.946006 0.83548,0.601203 -0.77435,0.678124 z"
   transform="translate(-361.52348,-6.1783886)" /><path
   style="font-weight:bold;font-size:49.8801px;line-height:0;font-family:'Linguistics Pro';-inkscape-font-specification:'Linguistics Pro, Bold';text-align:center;letter-spacing:0px;word-spacing:0px;text-anchor:middle;fill:#ffffff;stroke-width:15.2979;stroke-linecap:round;stroke-linejoin:round;stroke-miterlimit:10;stroke-opacity:0.918397;paint-order:fill markers stroke"
   d="m 7.31241,81.983894 c 2.74791,8.132941 8.68879,10.710291 15.51465,8.404008 4.01806,-1.357599 8.06224,-4.234252 7.92202,-10.875039 L 28.79302,79.31078 c -0.5337,3.84802 -2.04551,5.599376 -4.70807,6.498988 -3.14668,1.063181 -6.91622,-0.03641 -9.46785,-7.588422 -2.19179,-6.486993 -1.04247,-9.949711 0.99076,-10.636689 1.69437,-0.572482 3.0244,0.650173 4.82877,3.276736 0.71507,0.998939 1.63751,1.334514 2.89617,0.909242 1.69437,-0.572483 3.72364,-2.228984 3.00395,-4.359044 -1.16132,-3.437128 -6.64026,-3.689476 -11.0456,-2.201025 -3.77601,1.275816 -6.4176,3.354952 -7.86002,6.26947 -1.34626,2.720209 -1.54175,6.292157 -0.11872,10.503858 z"
   id="path109"
   aria-label="c" /></svg>
