<?xml version="1.0" encoding="UTF-8" standalone="no"?>
<!-- Generator: Adobe Illustrator 13.0.2, SVG Export Plug-In . SVG Version: 6.00 Build 14948)  -->

<svg
   id="Layer_1"
   xml:space="preserve"
   viewBox="0 0 83.326593 108.7695"
   version="1.1"
   y="0px"
   x="0px"
   width="83.326591"
   height="108.7695"
   xmlns:xlink="http://www.w3.org/1999/xlink"
   xmlns="http://www.w3.org/2000/svg"
   xmlns:svg="http://www.w3.org/2000/svg"
   xmlns:rdf="http://www.w3.org/1999/02/22-rdf-syntax-ns#"
   xmlns:cc="http://creativecommons.org/ns#"
   xmlns:dc="http://purl.org/dc/elements/1.1/"><defs
   id="defs1"><linearGradient
     id="linearGradient103"><stop
       style="stop-color:#64cfb7;stop-opacity:1;"
       offset="0"
       id="stop101" /><stop
       style="stop-color:#5dc1c0;stop-opacity:1;"
       offset="0.49771217"
       id="stop102" /><stop
       style="stop-color:#59b8c6;stop-opacity:1;"
       offset="1"
       id="stop103" /></linearGradient><linearGradient
     id="linearGradient25"><stop
       style="stop-color:#6adaaf;stop-opacity:1;"
       offset="0"
       id="stop25" /><stop
       style="stop-color:#53adce;stop-opacity:1;"
       offset="0.74842769"
       id="stop27" /><stop
       style="stop-color:#3cb7cc;stop-opacity:1;"
       offset="1"
       id="stop26" /></linearGradient><linearGradient
     xlink:href="#linearGradient103"
     id="linearGradient116"
     gradientUnits="userSpaceOnUse"
     gradientTransform="matrix(0.90383986,0,0,0.90383986,-348.99183,-2.70485)"
     x1="443.03525"
     y1="6.4691544"
     x2="474.3493"
     y2="38.408539" /><linearGradient
     xlink:href="#linearGradient25"
     id="linearGradient117"
     gradientUnits="userSpaceOnUse"
     gradientTransform="matrix(0.91706143,0,0,0.91706143,-357.7058,0.43774)"
     x1="394.69901"
     y1="2.7508903"
     x2="476.31186"
     y2="114.87547" /></defs>


<metadata
   id="metadata1"><rdf:RDF><cc:Work><dc:format>image/svg+xml</dc:format><dc:type
         rdf:resource="http://purl.org/dc/dcmitype/StillImage" /><cc:license
         rdf:resource="http://creativecommons.org/publicdomain/zero/1.0/" /><dc:publisher><cc:Agent
           rdf:about="http://openclipart.org/"><dc:title>Openclipart</dc:title></cc:Agent></dc:publisher><dc:title>Signs Hazard Warning</dc:title><dc:date>2006-09-11T08:59:16</dc:date><dc:description /><dc:source>https://openclipart.org/detail/14422/signs-hazard-warning-by-h0us3s-14422</dc:source><dc:creator><cc:Agent><dc:title>h0us3s</dc:title></cc:Agent></dc:creator><dc:subject><rdf:Bag><rdf:li>hazard</rdf:li><rdf:li>sign</rdf:li><rdf:li>warning</rdf:li></rdf:Bag></dc:subject></cc:Work><cc:License
       rdf:about="http://creativecommons.org/publicdomain/zero/1.0/"><cc:permits
         rdf:resource="http://creativecommons.org/ns#Reproduction" /><cc:permits
         rdf:resource="http://creativecommons.org/ns#Distribution" /><cc:permits
         rdf:resource="http://creativecommons.org/ns#DerivativeWorks" /></cc:License></rdf:RDF></metadata><path
   d="M 83.32659,31.863565 51.46303,0 H 12.26406 C 5.47068,0 0,5.4707 0,12.2641 v 84.24127 c 0,6.79343 5.47068,12.26413 12.26406,12.26413 h 58.80733 c 6.79338,0 12.2552,-5.4707 12.2552,-12.26413 z"
   style="fill:url(#linearGradient117);fill-rule:nonzero;stroke:none;stroke-width:6.72573;stroke-linecap:round;stroke-linejoin:round;stroke-miterlimit:10;stroke-dasharray:none;stroke-opacity:1;paint-order:fill markers stroke"
   id="path103" /><path
   id="path104"
   style="fill:#ffffff;fill-opacity:1;stroke-width:0.44282"
   d="M 21.19197,1.87368 20.47322,61.627587 31.3033,1.87368 Z m 27.75,0 L 26.13533,63.465478 51.7408,18.40298 49.57478,1.87368 Z M 3.00056,9.21938 C 2.89374,9.78614 2.83845,10.37306 2.83845,10.97524 V 38.024071 L 13.13923,61.965478 C 13.13923,61.414133 5.91646,24.21548 3.00056,9.21938 Z M 56.47322,29.1686 33.08259,60.281884 61.0865,31.049462 56.48298,29.17056 Z M 68.8072,32.080712 31.78767,68.061181 81.16658,34.137352 v -1.33789 l -12.3418,-0.71875 z m 12.35938,11.36914 -45.85352,27.15625 45.85352,-20.78125 z M 2.83845,48.709618 V 60.420556 L 8.33064,66.25454 Z M 81.16658,63.328759 34.71736,74.590478 81.16658,68.717431 Z m 0,12.199219 -38.48242,1.607421 38.48242,1.306641 z m -46.03906,4.433593 -0.0293,0.002 46.06836,7.638672 v -5.648437 z m -1.50782,4.982422 45.98633,17.333987 c 0.98831,-1.45838 1.56055,-3.23176 1.56055,-5.16407 v -0.043 C 69.9141,95.02591 33.6197,84.943953 33.6197,84.943953 Z m -4.15234,3.966797 23.07031,17.30469 h 19.53516 c 0.65668,0 1.29438,-0.065 1.9082,-0.19141 z" /><path
   style="font-size:35.9644px;line-height:0;font-family:'Adwaita Sans';-inkscape-font-specification:'Adwaita Sans, @opsz=32,wght=900';font-variation-settings:'opsz' 32, 'wght' 900;text-align:center;letter-spacing:-4.49555px;word-spacing:0px;text-anchor:middle;fill:#ffffff;fill-opacity:1;stroke:#ffffff;stroke-width:1.296;stroke-linejoin:round;stroke-miterlimit:10;stroke-opacity:1;paint-order:markers stroke fill"
   d="m 25.32801,89.549474 q -3.23543,1.496679 -6.52138,1.2947 -3.27002,-0.209342 -6.06082,-2.226963 -2.79818,-2.033554 -4.61927,-5.970249 -1.83583,-3.968579 -1.57388,-7.41771 0.26193,-3.449135 2.22696,-6.060826 1.97359,-2.634993 5.20902,-4.131672 2.27914,-1.054312 4.50137,-1.269652 2.22222,-0.21534 4.22435,0.348343 2.01806,0.556298 3.70686,1.864731 1.70473,1.30106 2.91701,3.294289 l -6.67805,3.089208 q -0.53419,-0.778365 -1.21043,-1.278186 -0.66029,-0.507194 -1.41599,-0.718723 -0.75571,-0.211525 -1.58351,-0.11882 -0.81924,0.06939 -1.6799,0.467518 -1.60975,0.744655 -2.37151,2.025781 -0.74583,1.273744 -0.64131,3.005468 0.0972,1.715783 1.063,3.80367 0.95847,2.071941 2.18722,3.26426 1.2447,1.184943 2.71425,1.433878 1.46956,0.248925 3.07931,-0.49573 0.86065,-0.398131 1.45133,-0.961603 0.59068,-0.563472 0.91877,-1.276351 0.3207,-0.728822 0.36906,-1.544485 0.0569,-0.838973 -0.1671,-1.741477 l 6.67806,-3.089209 q 0.71819,2.221793 0.62192,4.355979 -0.10364,2.118248 -0.98629,4.016406 -0.88265,1.898155 -2.48556,3.452289 -1.59435,1.530824 -3.87349,2.585136 z"
   id="path115"
   aria-label="C" /><path
   d="m 51.31628,2.19015 v 18.34256 c 0,6.35775 5.11158,11.477611 11.4693,11.477611 h 18.35086 z"
   style="fill:#ffffff;fill-opacity:1;stroke:url(#linearGradient116);stroke-width:4.38091;stroke-linecap:round;stroke-linejoin:round;stroke-miterlimit:10;stroke-dasharray:none;stroke-opacity:1;paint-order:markers stroke fill"
   id="path116" /><path
   style="fill:#ffffff;stroke:none;stroke-width:7.19;stroke-linecap:round;stroke-linejoin:round;stroke-miterlimit:10;stroke-opacity:0.918397;paint-order:fill markers stroke"
   id="path117"
   d="m 378.24291,53.052552 -1.28235,-0.772775 -1.48552,0.186667 0.33868,-1.458392 -0.63658,-1.35513 1.49167,-0.128562 1.09209,-1.024183 0.58322,1.378936 1.31153,0.722151 -1.13122,0.980791 z"
   transform="translate(-361.70382,-7.27671)" /><path
   style="fill:#ffffff;stroke:none;stroke-width:7.19;stroke-linecap:round;stroke-linejoin:round;stroke-miterlimit:10;stroke-opacity:0.918397;paint-order:fill markers stroke"
   id="path118"
   d="m 369.38394,24.683467 -1.34366,0.08191 -0.94902,0.954712 -0.49312,-1.252579 -1.20125,-0.607553 1.03889,-0.85605 0.20661,-1.3302 1.13519,0.723511 1.32894,-0.214556 -0.3373,1.303205 z"
   transform="translate(-359.70382,-7.27671)" /><path
   style="fill:#ffffff;stroke:none;stroke-width:7.19;stroke-linecap:round;stroke-linejoin:round;stroke-miterlimit:10;stroke-opacity:0.918397;paint-order:fill markers stroke"
   id="path119"
   d="m 397.71397,26.935354 -1.81424,-1.041795 -2.08676,0.148974 0.43018,-2.04737 -0.78653,-1.938594 2.0801,-0.223549 1.60066,-1.347091 0.85539,1.909209 1.77579,1.106046 -1.55143,1.403504 z"
   transform="matrix(1.0875893,0,0,1.0875893,-396.41354,-9.3466692)" /><path
   style="fill:#ffffff;stroke:none;stroke-width:7.19;stroke-linecap:round;stroke-linejoin:round;stroke-miterlimit:10;stroke-opacity:0.918397;paint-order:fill markers stroke"
   id="path120"
   d="m 395.65656,62.11459 -0.71073,-0.574389 -0.86118,-0.305632 0.32664,-0.853439 0.0246,-0.913485 0.91261,0.04694 0.87636,-0.258932 0.23737,0.882446 0.51707,0.753456 -0.7659,0.498446 z"
   transform="translate(-359.70382,-7.27671)" /><path
   style="fill:#ffffff;stroke:none;stroke-width:7.19;stroke-linecap:round;stroke-linejoin:round;stroke-miterlimit:10;stroke-opacity:0.918397;paint-order:fill markers stroke"
   id="path121"
   d="m 406.58381,46.120891 -1.4174,-0.356072 -1.32572,0.615042 -0.0994,-1.458059 -0.99461,-1.070775 1.356,-0.545058 0.71101,-1.276817 0.93741,1.121194 1.43404,0.281659 -0.77664,1.237994 z"
   transform="translate(-359.70382,-7.27671)" /><path
   style="fill:#ffffff;stroke:none;stroke-width:7.19;stroke-linecap:round;stroke-linejoin:round;stroke-miterlimit:10;stroke-opacity:0.918397;paint-order:fill markers stroke"
   id="path122"
   d="m 418.33914,72.423266 0.36186,-2.001786 -0.87595,-1.835975 2.01564,-0.27443 1.47543,-1.400428 0.88386,1.832179 1.78782,0.970463 -1.46938,1.40678 -0.3705,2.000207 -1.79198,-0.962742 z"
   transform="matrix(1.0348365,0,0,1.0348365,-376.71926,-8.2855469)" /><path
   style="fill:#ffffff;stroke:none;stroke-width:7.19;stroke-linecap:round;stroke-linejoin:round;stroke-miterlimit:10;stroke-opacity:0.918397;paint-order:fill markers stroke"
   id="path123"
   d="m 435.56351,64.489987 -1.13096,-0.176475 -1.12997,0.182726 -0.18165,-1.13014 -0.52296,-1.018195 1.0187,-0.52199 0.80675,-0.812006 0.81124,0.807532 1.02156,0.516348 -0.51732,1.021073 z"
   transform="rotate(-37.590333,245.1071,589.38117)" /><path
   style="fill:#ffffff;stroke:none;stroke-width:7.19;stroke-linecap:round;stroke-linejoin:round;stroke-miterlimit:10;stroke-opacity:0.918397;paint-order:fill markers stroke"
   id="path124"
   d="m 440.53262,81.194613 -1.86822,-0.313726 -1.70759,0.820267 -0.27894,-1.873732 -1.30779,-1.370533 1.69582,-0.844304 0.89933,-1.667303 1.32702,1.351924 1.8636,0.340082 -0.87568,1.679839 z"
   transform="matrix(0.71363161,0,0,0.71363161,-236.5217,15.88369)" /><path
   style="fill:#ffffff;stroke:none;stroke-width:7.19;stroke-linecap:round;stroke-linejoin:round;stroke-miterlimit:10;stroke-opacity:0.918397;paint-order:fill markers stroke"
   id="path125"
   d="m 421.77201,95.192914 -0.92061,-0.649072 -1.1222,-0.09726 0.33282,-1.076122 -0.25428,-1.097339 1.1263,-0.01601 0.96505,-0.580932 0.36327,1.066229 0.85072,0.738302 -0.90179,0.674974 z"
   transform="matrix(1.5266807,0,0,1.5266807,-582.3132,-54.31198)" /><path
   style="fill:#ffffff;stroke:none;stroke-width:7.19;stroke-linecap:round;stroke-linejoin:round;stroke-miterlimit:10;stroke-opacity:0.918397;paint-order:fill markers stroke"
   id="path126"
   d="m 406.35276,99.680599 -0.88423,-0.526902 -1.02929,0.0047 0.22787,-1.003768 -0.32254,-0.977467 1.02506,-0.09346 0.82995,-0.608809 0.40565,0.946006 0.83548,0.601203 -0.77435,0.678124 z"
   transform="translate(-361.52348,-6.1783886)" /></svg>
