<?xml version="1.0" encoding="UTF-8" standalone="no"?>
<svg
   width="209"
   height="30"
   viewBox="0 0 209 30"
   fill="none"
   version="1.1"
   id="svg8"
   xmlns="http://www.w3.org/2000/svg"
   xmlns:svg="http://www.w3.org/2000/svg">
  <g
     clip-path="url(#clip0_2178_644)"
     id="g8"
     transform="translate(-4.0000009)">
    <g
       id="g9">
      <path
         d="M 205,0 H 12 C 7.58172,0 4,3.58172 4,8 v 14 c 0,4.4183 3.58172,8 8,8 h 193 c 4.418,0 8,-3.5817 8,-8 V 8 c 0,-4.41828 -3.582,-8 -8,-8 z"
         fill="#72a4f2"
         id="path1" />
      <path
         d="m 60.327,20.1697 c -0.7164,0 -1.3528,-0.1273 -1.909,-0.3818 -0.5561,-0.2545 -0.9898,-0.6175 -1.3009,-1.0888 -0.3111,-0.4714 -0.4713,-1.0323 -0.4808,-1.6828 h 1.7959 c 0,0.33 0.0754,0.6269 0.2262,0.8909 0.1603,0.2545 0.3771,0.4572 0.6505,0.608 0.2828,0.1509 0.6222,0.2263 1.0181,0.2263 0.3394,0 0.6317,-0.0519 0.8768,-0.1556 0.2545,-0.1131 0.4477,-0.2686 0.5797,-0.4666 0.1414,-0.2074 0.2121,-0.4478 0.2121,-0.7212 0,-0.3111 -0.0754,-0.5656 -0.2262,-0.7636 -0.1414,-0.2074 -0.3394,-0.3818 -0.5939,-0.5232 -0.2546,-0.1414 -0.5468,-0.2639 -0.8767,-0.3676 -0.33,-0.1132 -0.6788,-0.231 -1.0465,-0.3535 -0.7824,-0.264 -1.3716,-0.5987 -1.7675,-1.004 -0.396,-0.4148 -0.5939,-0.9663 -0.5939,-1.6545 0,-0.575 0.1367,-1.07 0.41,-1.4848 0.2734,-0.4147 0.6552,-0.7353 1.1454,-0.9615 0.4997,-0.2357 1.0747,-0.35354 1.7252,-0.35354 0.6599,0 1.2349,0.11784 1.7251,0.35354 0.4997,0.2357 0.8909,0.5656 1.1737,0.9898 0.2923,0.4148 0.4431,0.9145 0.4525,1.4989 h -1.81 c -0.0094,-0.2451 -0.0754,-0.4713 -0.1979,-0.6787 -0.1226,-0.2168 -0.3017,-0.3912 -0.5374,-0.5232 -0.2262,-0.1414 -0.5043,-0.2121 -0.8343,-0.2121 -0.2828,-0.0095 -0.5373,0.0377 -0.7636,0.1414 -0.2168,0.0942 -0.3912,0.2357 -0.5232,0.4242 -0.1225,0.1791 -0.1838,0.4054 -0.1838,0.6787 0,0.264 0.0565,0.4855 0.1697,0.6647 0.1225,0.1696 0.2969,0.3158 0.5232,0.4383 0.2262,0.1131 0.4902,0.2216 0.7918,0.3252 0.3017,0.1037 0.6317,0.2169 0.9899,0.3394 0.4902,0.1603 0.9333,0.3583 1.3292,0.5939 0.4054,0.2263 0.7259,0.5232 0.9616,0.8909 0.2357,0.3676 0.3535,0.8437 0.3535,1.4282 0,0.5091 -0.132,0.9851 -0.3959,1.4282 -0.264,0.4336 -0.6505,0.7872 -1.1596,1.0605 -0.509,0.264 -1.1454,0.396 -1.909,0.396 z m 7.4193,0 c -0.575,0 -1.0699,-0.1131 -1.4847,-0.3394 -0.4054,-0.2357 -0.7165,-0.5845 -0.9333,-1.0464 -0.2168,-0.4713 -0.3252,-1.0511 -0.3252,-1.7393 v -4.1715 h 1.6968 v 4.0018 c 0,0.6128 0.1273,1.0794 0.3818,1.3999 0.264,0.3111 0.6599,0.4667 1.1878,0.4667 0.3394,0 0.6411,-0.0801 0.905,-0.2404 0.2734,-0.1603 0.4855,-0.3912 0.6364,-0.6929 0.1602,-0.3111 0.2404,-0.6882 0.2404,-1.1313 v -3.8038 h 1.6968 V 20 H 70.2492 L 70.122,18.8122 c -0.2169,0.4148 -0.5327,0.7447 -0.9475,0.9898 -0.4053,0.2451 -0.8814,0.3677 -1.4282,0.3677 z m 5.607,2.9412 V 12.8731 h 1.5131 l 0.1838,1.0323 c 0.1508,-0.2074 0.33,-0.4007 0.5373,-0.5798 0.2169,-0.1885 0.4761,-0.3394 0.7778,-0.4525 0.3111,-0.1131 0.6646,-0.1697 1.0605,-0.1697 0.6694,0 1.2585,0.165 1.7676,0.495 0.5185,0.3299 0.9239,0.7777 1.2161,1.3433 0.2922,0.5562 0.4384,1.1925 0.4384,1.909 0,0.7165 -0.1509,1.3575 -0.4525,1.9231 -0.2923,0.5562 -0.6976,0.9946 -1.2161,1.3151 -0.5091,0.3205 -1.0936,0.4808 -1.7535,0.4808 -0.5373,0 -1.0087,-0.099 -1.414,-0.297 -0.396,-0.2074 -0.7165,-0.4996 -0.9616,-0.8767 v 4.1149 z m 3.719,-4.4118 c 0.396,0 0.7495,-0.0943 1.0606,-0.2829 0.3111,-0.1885 0.5514,-0.4525 0.7211,-0.7918 0.1792,-0.3394 0.2687,-0.7306 0.2687,-1.1737 0,-0.4525 -0.0895,-0.8484 -0.2687,-1.1878 -0.1697,-0.3394 -0.41,-0.6033 -0.7211,-0.7919 -0.3111,-0.1885 -0.6646,-0.2828 -1.0606,-0.2828 -0.4053,0 -0.7636,0.0943 -1.0747,0.2828 -0.3016,0.1886 -0.542,0.4525 -0.7211,0.7919 -0.1697,0.3394 -0.2546,0.7306 -0.2546,1.1737 0,0.4525 0.0849,0.8484 0.2546,1.1878 0.1791,0.3299 0.4195,0.5939 0.7211,0.7918 0.3111,0.1886 0.6694,0.2829 1.0747,0.2829 z m 5.1399,4.4118 V 12.8731 h 1.5131 l 0.1838,1.0323 c 0.1508,-0.2074 0.3299,-0.4007 0.5373,-0.5798 0.2169,-0.1885 0.4761,-0.3394 0.7778,-0.4525 0.3111,-0.1131 0.6646,-0.1697 1.0605,-0.1697 0.6693,0 1.2585,0.165 1.7676,0.495 0.5185,0.3299 0.9239,0.7777 1.2161,1.3433 0.2922,0.5562 0.4384,1.1925 0.4384,1.909 0,0.7165 -0.1509,1.3575 -0.4525,1.9231 -0.2923,0.5562 -0.6976,0.9946 -1.2161,1.3151 -0.5091,0.3205 -1.0936,0.4808 -1.7535,0.4808 -0.5373,0 -1.0087,-0.099 -1.414,-0.297 -0.396,-0.2074 -0.7165,-0.4996 -0.9616,-0.8767 v 4.1149 z m 3.719,-4.4118 c 0.3959,0 0.7495,-0.0943 1.0606,-0.2829 0.311,-0.1885 0.5514,-0.4525 0.7211,-0.7918 0.1791,-0.3394 0.2687,-0.7306 0.2687,-1.1737 0,-0.4525 -0.0896,-0.8484 -0.2687,-1.1878 -0.1697,-0.3394 -0.4101,-0.6033 -0.7211,-0.7919 -0.3111,-0.1885 -0.6647,-0.2828 -1.0606,-0.2828 -0.4054,0 -0.7636,0.0943 -1.0747,0.2828 -0.3016,0.1886 -0.542,0.4525 -0.7212,0.7919 -0.1696,0.3394 -0.2545,0.7306 -0.2545,1.1737 0,0.4525 0.0849,0.8484 0.2545,1.1878 0.1792,0.3299 0.4196,0.5939 0.7212,0.7918 0.3111,0.1886 0.6693,0.2829 1.0747,0.2829 z m 8.463,1.4706 c -0.6788,0 -1.2916,-0.1556 -1.8383,-0.4667 -0.5374,-0.3205 -0.9616,-0.7588 -1.2727,-1.315 -0.3016,-0.5657 -0.4525,-1.2114 -0.4525,-1.9373 0,-0.7447 0.1556,-1.3952 0.4667,-1.9514 0.3111,-0.5656 0.7353,-1.004 1.2726,-1.3151 0.5468,-0.3205 1.1596,-0.4808 1.8383,-0.4808 0.6788,0 1.2868,0.1603 1.8241,0.4808 0.5468,0.3111 0.971,0.7448 1.2727,1.3009 0.3111,0.5562 0.4666,1.2067 0.4666,1.9515 0,0.7447 -0.1555,1.3952 -0.4666,1.9514 -0.3111,0.5562 -0.74,0.9945 -1.2868,1.315 -0.5373,0.3111 -1.1454,0.4667 -1.8241,0.4667 z m 0,-1.4565 c 0.3393,0 0.6457,-0.0848 0.9191,-0.2545 0.2828,-0.1697 0.5091,-0.4242 0.6788,-0.7636 0.1696,-0.3394 0.2545,-0.7589 0.2545,-1.2585 0,-0.4997 -0.0849,-0.9145 -0.2545,-1.2444 -0.1603,-0.3394 -0.3818,-0.5939 -0.6647,-0.7636 -0.2733,-0.1697 -0.5797,-0.2545 -0.9191,-0.2545 -0.3299,0 -0.6363,0.0848 -0.9191,0.2545 -0.2829,0.1697 -0.5091,0.4242 -0.6788,0.7636 -0.1697,0.3299 -0.2545,0.7447 -0.2545,1.2444 0,0.4996 0.0848,0.9191 0.2545,1.2585 0.1697,0.3394 0.3912,0.5939 0.6646,0.7636 0.2828,0.1697 0.5892,0.2545 0.9192,0.2545 z M 99.35,20 v -7.1269 h 1.513 l 0.156,1.3292 c 0.169,-0.3111 0.381,-0.575 0.636,-0.7918 0.254,-0.2263 0.551,-0.4007 0.891,-0.5232 0.349,-0.1226 0.73,-0.1839 1.145,-0.1839 v 1.7959 h -0.594 c -0.283,0 -0.551,0.0377 -0.806,0.1131 -0.254,0.066 -0.476,0.1791 -0.664,0.3394 -0.179,0.1508 -0.321,0.3629 -0.425,0.6363 -0.103,0.264 -0.155,0.5986 -0.155,1.004 V 20 Z m 8.434,0 c -0.48,0 -0.9,-0.0754 -1.258,-0.2263 -0.349,-0.1508 -0.622,-0.4006 -0.82,-0.7494 -0.198,-0.3488 -0.297,-0.8202 -0.297,-1.4141 v -3.3089 h -1.216 v -1.4282 h 1.216 l 0.198,-1.8807 h 1.499 v 1.8807 h 1.937 v 1.4282 h -1.937 v 3.3089 c 0,0.3583 0.075,0.6081 0.226,0.7495 0.16,0.132 0.424,0.198 0.792,0.198 H 109 V 20 Z m 31.128,0.1697 c -0.678,0 -1.291,-0.1556 -1.838,-0.4667 -0.537,-0.3205 -0.961,-0.7588 -1.272,-1.315 -0.302,-0.5657 -0.453,-1.2114 -0.453,-1.9373 0,-0.7447 0.156,-1.3952 0.467,-1.9514 0.311,-0.5656 0.735,-1.004 1.272,-1.3151 0.547,-0.3205 1.16,-0.4808 1.839,-0.4808 0.678,0 1.286,0.1603 1.824,0.4808 0.547,0.3111 0.971,0.7448 1.272,1.3009 0.311,0.5562 0.467,1.2067 0.467,1.9515 0,0.7447 -0.156,1.3952 -0.467,1.9514 -0.311,0.5562 -0.74,0.9945 -1.286,1.315 -0.538,0.3111 -1.146,0.4667 -1.825,0.4667 z m 0,-1.4565 c 0.34,0 0.646,-0.0848 0.92,-0.2545 0.282,-0.1697 0.509,-0.4242 0.678,-0.7636 0.17,-0.3394 0.255,-0.7589 0.255,-1.2585 0,-0.4997 -0.085,-0.9145 -0.255,-1.2444 -0.16,-0.3394 -0.381,-0.5939 -0.664,-0.7636 -0.274,-0.1697 -0.58,-0.2545 -0.919,-0.2545 -0.33,0 -0.637,0.0848 -0.92,0.2545 -0.282,0.1697 -0.509,0.4242 -0.678,0.7636 -0.17,0.3299 -0.255,0.7447 -0.255,1.2444 0,0.4996 0.085,0.9191 0.255,1.2585 0.169,0.3394 0.391,0.5939 0.664,0.7636 0.283,0.1697 0.59,0.2545 0.919,0.2545 z M 143.868,20 v -7.1269 h 1.499 l 0.127,1.1878 c 0.217,-0.4148 0.528,-0.7447 0.934,-0.9898 0.405,-0.2451 0.886,-0.3677 1.442,-0.3677 0.575,0 1.065,0.1226 1.471,0.3677 0.405,0.2357 0.716,0.5845 0.933,1.0464 0.226,0.4619 0.339,1.037 0.339,1.7252 V 20 h -1.696 v -4.0018 c 0,-0.5939 -0.132,-1.0511 -0.396,-1.3716 -0.264,-0.3206 -0.656,-0.4808 -1.174,-0.4808 -0.339,0 -0.646,0.0801 -0.919,0.2404 -0.264,0.1602 -0.476,0.3959 -0.637,0.707 -0.15,0.3017 -0.226,0.6693 -0.226,1.103 V 20 Z m 11.478,0 v -9.8984 h 1.697 v 4.0866 l 3.733,-4.0866 h 2.107 l -3.663,3.931 3.747,5.9674 h -2.064 l -2.885,-4.6664 -0.975,1.0605 V 20 Z m 11.366,0.1697 c -0.679,0 -1.292,-0.1556 -1.839,-0.4667 -0.537,-0.3205 -0.961,-0.7588 -1.272,-1.315 -0.302,-0.5657 -0.453,-1.2114 -0.453,-1.9373 0,-0.7447 0.156,-1.3952 0.467,-1.9514 0.311,-0.5656 0.735,-1.004 1.272,-1.3151 0.547,-0.3205 1.16,-0.4808 1.839,-0.4808 0.678,0 1.286,0.1603 1.824,0.4808 0.547,0.3111 0.971,0.7448 1.272,1.3009 0.312,0.5562 0.467,1.2067 0.467,1.9515 0,0.7447 -0.155,1.3952 -0.467,1.9514 -0.311,0.5562 -0.74,0.9945 -1.286,1.315 -0.538,0.3111 -1.146,0.4667 -1.824,0.4667 z m 0,-1.4565 c 0.339,0 0.645,-0.0848 0.919,-0.2545 0.282,-0.1697 0.509,-0.4242 0.678,-0.7636 0.17,-0.3394 0.255,-0.7589 0.255,-1.2585 0,-0.4997 -0.085,-0.9145 -0.255,-1.2444 -0.16,-0.3394 -0.381,-0.5939 -0.664,-0.7636 -0.274,-0.1697 -0.58,-0.2545 -0.919,-0.2545 -0.33,0 -0.637,0.0848 -0.919,0.2545 -0.283,0.1697 -0.51,0.4242 -0.679,0.7636 -0.17,0.3299 -0.255,0.7447 -0.255,1.2444 0,0.4996 0.085,0.9191 0.255,1.2585 0.169,0.3394 0.391,0.5939 0.664,0.7636 0.283,0.1697 0.59,0.2545 0.92,0.2545 z m 5.068,-2.1777 v -1.414 h 5.855 v 1.414 z M 179.734,20 v -7.9046 c 0,-0.5468 0.089,-0.9852 0.268,-1.3151 0.189,-0.3394 0.457,-0.5845 0.806,-0.7353 0.349,-0.15085 0.764,-0.22626 1.245,-0.22626 h 0.848 v 1.44236 h -0.594 c -0.311,0 -0.537,0.066 -0.679,0.198 -0.132,0.1225 -0.198,0.3393 -0.198,0.6504 V 20 Z m -1.019,-5.6987 v -1.4282 h 4.328 v 1.4282 z M 184.291,20 v -7.1269 h 1.697 V 20 Z m 0.849,-8.2581 c -0.311,0 -0.571,-0.0943 -0.778,-0.2828 -0.198,-0.198 -0.297,-0.4384 -0.297,-0.7212 0,-0.2923 0.099,-0.5279 0.297,-0.7071 0.207,-0.18849 0.467,-0.28277 0.778,-0.28277 0.311,0 0.565,0.09428 0.763,0.28277 0.208,0.1792 0.311,0.4148 0.311,0.7071 0,0.2828 -0.103,0.5232 -0.311,0.7212 -0.198,0.1885 -0.452,0.2828 -0.763,0.2828 z"
         fill="#202020"
         id="path2" />
      <path
         d="m 29.1393,24.6047 c -3.3275,0 -6.034,-1.4882 -7.6204,-4.1906 C 20.1144,18.0454 20,15.4798 20,12.613 c 0,-1.6995 0.5113,-3.17929 1.4779,-4.27962 0.8884,-1.01059 2.1471,-1.66525 3.5449,-1.84352 1.6593,-0.21019 3.722,-0.22765 5.8667,-0.22765 3.4901,0 4.476,0.04276 5.8491,0.18007 1.8267,0.18128 3.3636,0.86304 4.4441,1.9718 C 42.28,9.54031 42.86,11.0442 42.86,12.7648 v 0.3457 c 0,2.936 -1.9628,5.3933 -4.6982,6.0612 -0.2042,0.4818 -0.4571,0.9612 -0.7565,1.4333 l -0.0078,0.0121 c -0.9636,1.4894 -3.2287,3.9882 -7.5674,3.9882 h -0.6914 z"
         fill="#ffffff"
         id="path3" />
      <path
         d="M 36.5946,7.87964 C 35.2979,7.75015 34.3903,7.70679 30.8894,7.70679 c -2.2477,0 -4.1496,0.02168 -5.6836,0.21621 -2.0314,0.25957 -3.7605,1.81522 -3.7605,4.6898 0,2.8746 0.1512,5.1005 1.3184,7.0669 1.3183,2.2477 3.5226,3.4793 6.3755,3.4793 h 0.6914 c 3.5009,0 5.4029,-1.8586 6.3539,-3.3281 0.4107,-0.6486 0.713,-1.2967 0.9075,-1.9453 2.4856,-0.2162 4.3225,-2.2693 4.3225,-4.7759 V 12.764 c 0,-2.7012 -1.7719,-4.58143 -4.8193,-4.88436 z"
         fill="#ffffff"
         id="path4" />
      <path
         d="m 21.4459,12.6128 c 0,-2.87458 1.7291,-4.43023 3.7605,-4.6898 1.5346,-0.19453 3.4365,-0.21621 5.6836,-0.21621 3.5009,0 4.4085,0.04336 5.7052,0.17285 3.0474,0.30233 4.8193,2.18256 4.8193,4.88436 v 0.3457 c 0,2.5072 -1.8369,4.5603 -4.3224,4.7759 -0.1946,0.6486 -0.4969,1.2967 -0.9077,1.9453 -0.9509,1.4695 -2.8529,3.3281 -6.3538,3.3281 h -0.6914 c -2.8529,0 -5.0572,-1.2316 -6.3755,-3.4793 -1.1672,-1.9664 -1.3184,-4.1496 -1.3184,-7.0669"
         fill="#202020"
         id="path5" />
      <path
         d="m 23.065,12.6343 c 0,2.7879 0.1729,4.5814 1.0805,6.2454 1.0371,1.9237 2.9174,2.6584 5.0572,2.6584 h 0.6697 c 2.8096,0 4.1713,-1.3617 4.9277,-2.55 0.3674,-0.6052 0.6914,-1.2749 0.8642,-2.1181 l 0.1295,-0.5402 h 0.7782 c 1.729,0 3.2202,-1.4045 3.2202,-3.1987 v -0.324 c 0,-2.0097 -1.2533,-3.06909 -3.4365,-3.32805 -1.2316,-0.1078 -1.9663,-0.15117 -5.4679,-0.15117 -2.3554,0 -4.0412,0.02167 -5.3161,0.21621 -1.7936,0.25958 -2.5072,1.27501 -2.5072,3.09021"
         fill="#ffffff"
         id="path6" />
      <path
         d="m 35.7969,14.1256 c 0,0.2596 0.1945,0.4541 0.5402,0.4541 1.1022,0 1.7074,-0.6269 1.7074,-1.664 0,-1.0371 -0.6052,-1.6857 -1.7074,-1.6857 -0.3457,0 -0.5402,0.1945 -0.5402,0.4541 v 2.4422 z"
         fill="#202020"
         id="path7" />
      <path
         d="m 25.1842,13.9968 c 0,1.275 0.7131,2.3772 1.6207,3.242 0.6053,0.5836 1.5562,1.1889 2.2043,1.5779 0.1945,0.1078 0.389,0.1729 0.6052,0.1729 0.2596,0 0.4752,-0.0651 0.6487,-0.1729 0.6486,-0.389 1.599,-0.9943 2.1826,-1.5779 0.9293,-0.8642 1.6423,-1.9664 1.6423,-3.242 0,-1.3834 -1.0371,-2.615 -2.5283,-2.615 -0.8859,0 -1.4912,0.4541 -1.9453,1.0805 -0.4107,-0.627 -1.0371,-1.0805 -1.9236,-1.0805 -1.5129,0 -2.5072,1.2316 -2.5072,2.615"
         fill="#ff5a16"
         id="path8" />
      <path
         style="font-size:14.1118px;line-height:0;font-family:'Adwaita Sans';-inkscape-font-specification:'Adwaita Sans, @opsz=32,wght=600';font-variation-settings:'opsz' 32, 'wght' 600;text-align:center;letter-spacing:0px;word-spacing:0px;text-anchor:middle;fill:#202020;stroke-width:3.77953;stroke-linejoin:round;stroke-miterlimit:6;paint-order:fill markers stroke"
         d="m 118.00487,20.205462 q -0.75796,0 -1.34366,-0.323855 -0.58569,-0.330746 -0.91644,-0.971565 -0.33074,-0.647709 -0.33074,-1.57793 v -4.547748 h 1.73641 v 4.272127 q 0,0.799301 0.38587,1.212732 0.39276,0.413432 1.08181,0.413432 0.46167,0 0.81998,-0.186044 0.3583,-0.186044 0.56502,-0.578805 0.20672,-0.39965 0.20672,-1.019798 v -4.113644 h 1.7433 v 7.276396 h -1.70885 v -1.853551 h 0.33763 q -0.35141,0.971564 -0.99223,1.488354 -0.63393,0.509899 -1.58482,0.509899 z m 8.34443,0.02756 q -0.88199,0 -1.58482,-0.275621 -0.70284,-0.282512 -1.13005,-0.819973 -0.42721,-0.544352 -0.48234,-1.322981 h 1.71574 q 0.0551,0.53057 0.42722,0.826863 0.37897,0.289402 1.02668,0.289402 0.62704,0 0.98535,-0.248059 0.3652,-0.248059 0.3652,-0.633929 0,-0.330745 -0.26873,-0.53057 -0.26184,-0.199825 -0.72351,-0.296293 l -1.24029,-0.254949 q -1.04736,-0.220497 -1.58482,-0.751068 -0.53747,-0.53057 -0.53747,-1.350543 0,-0.668381 0.35831,-1.17139 0.3652,-0.503008 1.0198,-0.78552 0.66149,-0.282512 1.55037,-0.282512 0.88199,0 1.55037,0.296293 0.67527,0.296293 1.05425,0.840644 0.38587,0.537462 0.40654,1.288529 h -1.63306 q -0.007,-0.489227 -0.37897,-0.806192 -0.3652,-0.316964 -0.95779,-0.316964 -0.57191,0 -0.90266,0.25495 -0.33074,0.254949 -0.33074,0.627038 0,0.323854 0.25495,0.53057 0.25495,0.199825 0.70972,0.303183 l 1.3092,0.268731 q 1.08181,0.227387 1.59171,0.716615 0.51679,0.489227 0.51679,1.288528 0,0.709725 -0.39965,1.233405 -0.39276,0.516789 -1.0887,0.799301 -0.69594,0.282512 -1.5986,0.282512 z"
         id="text8"
         aria-label="us" />
    </g>
  </g>
  <defs
     id="defs8">
    <clipPath
       id="clip0_2178_644">
      <rect
         width="223"
         height="30"
         fill="#ffffff"
         id="rect8"
         x="0"
         y="0" />
    </clipPath>
  </defs>
</svg>
